<?xml version="1.0" encoding="UTF-8" standalone="no"?>
<!DOCTYPE svg PUBLIC "-//W3C//DTD SVG 1.1//EN" "http://www.w3.org/Graphics/SVG/1.1/DTD/svg11.dtd">
<svg width="32.00" height="32.00" viewBox="0.00 0.00 32.00 32.00" xmlns="http://www.w3.org/2000/svg" xmlns:xlink="http://www.w3.org/1999/xlink">
<g stroke-linecap="round" id="iconp">
<path d="M5.82,6.35 C5.82,6.35 6.02,22.01 6.02,22.01" fill="none" stroke="rgb(0, 0, 0)" stroke-width="4.00" stroke-opacity="1.00" stroke-linejoin="round"/>
<path d="M4.76,6.35 C4.76,6.35 23.73,6.15 23.73,6.15" fill="none" stroke="rgb(0, 0, 0)" stroke-width="4.00" stroke-opacity="1.00" stroke-linejoin="round"/>
<path d="M2.38,6.94 C2.38,6.94 23.47,7.67 23.47,7.67" fill="none" stroke="rgb(0, 0, 0)" stroke-width="4.00" stroke-opacity="1.00" stroke-linejoin="round"/>
<path d="M5.42,7.47 C6.16,7.47 15.80,9.12 16.23,9.12 C25.60,9.67 27.53,8.93 27.80,8.79" fill="none" stroke="rgb(0, 0, 0)" stroke-width="4.00" stroke-opacity="1.00" stroke-linejoin="round"/>
<path d="M11.37,6.68 C11.37,6.68 24.53,8.00 24.53,8.00" fill="none" stroke="rgb(0, 0, 0)" stroke-width="4.00" stroke-opacity="1.00" stroke-linejoin="round"/>
<path d="M26.58,9.19 C26.58,9.19 21.95,26.81 21.95,26.81" fill="none" stroke="rgb(0, 0, 0)" stroke-width="4.00" stroke-opacity="1.00" stroke-linejoin="round"/>
<path d="M25.45,11.24 C25.42,12.17 22.49,20.49 21.72,24.33 C21.52,25.30 21.21,28.37 21.22,28.43" fill="none" stroke="rgb(0, 0, 0)" stroke-width="4.00" stroke-opacity="1.00" stroke-linejoin="round"/>
<path d="M3.01,22.77 C4.52,22.76 6.24,23.26 7.89,23.61 C9.88,24.03 17.85,28.30 18.25,28.54 C19.13,29.13 20.02,30.91 20.08,30.95 C20.08,30.95 20.27,31.24 20.27,31.24" fill="none" stroke="rgb(0, 0, 0)" stroke-width="4.00" stroke-opacity="1.00" stroke-linejoin="round"/>
<path d="M3.01,22.26 C4.00,22.26 16.08,27.81 17.19,29.38 C18.11,30.70 19.00,32.27 19.05,32.46" fill="none" stroke="rgb(0, 0, 0)" stroke-width="4.00" stroke-opacity="1.00" stroke-linejoin="round"/>
<path d="M9.66,8.24 C9.66,8.24 10.31,-0.28 10.31,-0.28 C10.31,-0.28 11.31,6.59 11.31,6.59 C11.31,6.59 10.91,0.80 10.91,0.80 C10.22,0.77 6.46,4.54 6.48,5.14 C6.50,5.69 6.37,6.08 6.36,6.16 C7.37,6.62 9.19,3.19 9.20,3.07" fill="none" stroke="rgb(0, 0, 0)" stroke-width="4.00" stroke-opacity="1.00" stroke-linejoin="round"/>
<path d="M20.85,5.49 C20.85,5.49 29.42,-0.26 29.42,-0.26 C29.26,2.46 24.63,7.38 24.25,7.82 C24.25,7.82 26.27,4.23 26.27,4.23" fill="none" stroke="rgb(0, 0, 0)" stroke-width="4.00" stroke-opacity="1.00" stroke-linejoin="round"/>
<path d="M10.61,19.44 C12.09,19.44 13.05,19.80 13.99,20.54 C14.97,21.26 17.10,23.42 17.09,23.81" fill="none" stroke="rgb(0, 0, 0)" stroke-width="4.00" stroke-opacity="1.00" stroke-linejoin="round"/>
<path d="M12.68,12.63 C12.68,12.63 12.16,14.86 12.16,14.86" fill="none" stroke="rgb(0, 0, 0)" stroke-width="4.00" stroke-opacity="1.00" stroke-linejoin="round"/>
<path d="M19.35,14.51 C19.35,14.51 17.98,17.52 17.98,17.52" fill="none" stroke="rgb(0, 0, 0)" stroke-width="4.00" stroke-opacity="1.00" stroke-linejoin="round"/>
</g>
</svg>
